<?xml version="1.0" encoding="UTF-8"?>
<svg id="Layer_1" data-name="Layer 1" xmlns="http://www.w3.org/2000/svg" width="33.78" height="33.78" viewBox="0 0 16.5 28.15">
  <path d="M1.74,16.08l-.05.04s-.1.06-.16.06h-.01s0,.01,0,.01c-.92,1.61-1.25,3.52-.93,5.35.46,2.6,2.22,4.87,4.67,5.89h.01s.01,0,.01,0c.09-.08.22-.09.32-.02.12.08.15.25.06.37-.08.12-.25.15-.37.07-.07-.05-.11-.13-.11-.21h0s-.01-.02-.01-.02c-.43-.18-.86-.39-1.25-.65-1.87-1.24-3.15-3.18-3.54-5.39-.33-1.87,0-3.82.94-5.47h0s0-.02,0-.02c-.07-.09-.08-.22,0-.31.08-.12.25-.15.37-.06.1.07.14.2.09.31l-.02.06h0Z" style="fill: #fdf9a8; fill-rule: evenodd; stroke: #fdf9a8; stroke-miterlimit: 10; stroke-width: .5px;"/>
  <path d="M.91,5.26v-.07c.01-.06,0-.12-.04-.17h0s0-.02,0-.02c.8-1.69,2.16-3.03,3.86-3.82C7.12.09,10.01.24,12.24,1.65h.01s0,.02,0,.02c-.01.12.06.23.17.28.14.05.29-.02.34-.16.05-.14-.02-.29-.16-.34-.08-.03-.17-.02-.24.03h-.01s-.01,0-.01,0c-.4-.25-.81-.48-1.24-.65C9.01,0,6.68.06,4.65,1c-1.74.8-3.13,2.17-3.95,3.9h0s-.01.01-.01.01c-.11,0-.22.06-.26.17-.05.14.02.29.16.34.11.04.24,0,.31-.1l.04-.06h0Z" style="fill: #fdf9a8; fill-rule: evenodd; stroke: #fdf9a8; stroke-miterlimit: 10; stroke-width: .5px;"/>
  <path d="M15.11,19.63s.05-.04.07-.07c.08-.12.05-.28-.06-.37-.12-.08-.28-.05-.37.06-.1.14-.04.34.13.4h.01s0,.02,0,.02c.24,1.71-.17,3.44-1.16,4.86-1.04,1.49-2.62,2.5-4.41,2.82-.26.05-.52.08-.79.09h-.01s0-.01,0-.01c-.02-.03-.05-.06-.08-.09-.12-.08-.28-.05-.37.07-.08.12-.05.28.06.37.12.08.28.05.37-.06.01-.02.02-.03.03-.05h0s.01-.01.01-.01c.27-.02.54-.05.81-.1,1.85-.33,3.47-1.37,4.54-2.9,1.02-1.46,1.45-3.24,1.2-5.01h0s.01-.02.01-.02h0Z" style="fill: #fdf9a8; fill-rule: evenodd; stroke: #fdf9a8; stroke-miterlimit: 10; stroke-width: .5px;"/>
  <path d="M7.96,13.08h.01s0-.01,0-.01c0-.02.02-.03.03-.05.08-.12.25-.15.37-.07.12.08.15.25.07.37-.08.12-.25.15-.37.07-.03-.02-.06-.05-.08-.09h0s-.01-.01-.01-.01c-.26.02-.53.05-.79.09-1.79.32-3.37,1.33-4.41,2.82-.99,1.42-1.41,3.15-1.16,4.86h0s.01.02.01.02c.02,0,.04.02.06.03.12.08.15.25.06.37-.08.12-.25.15-.37.06s-.15-.25-.06-.37c.02-.03.04-.05.07-.07h.01s0-.02,0-.02c-.25-1.76.18-3.55,1.2-5.01,1.07-1.54,2.7-2.57,4.54-2.9.27-.05.54-.08.81-.1h0Z" style="fill: #fdf9a8; fill-rule: evenodd; stroke: #fdf9a8; stroke-miterlimit: 10; stroke-width: .5px;"/>
  <path d="M4.37,12.83c0,.08.03.15.09.21.11.1.27.09.37-.02.1-.11.09-.27-.02-.37-.09-.08-.23-.09-.32-.02h-.01s-.01,0-.01,0c-.16-.12-.32-.24-.47-.37-.73-.65-1.25-1.48-1.52-2.41v-.02s0,0,0,0c.05-.03.08-.07.1-.12.05-.13-.02-.27-.15-.32-.13-.05-.27.02-.32.15-.05.12.01.26.13.32h0s0,.01,0,.01c.28.99.83,1.88,1.6,2.56.16.15.34.28.51.4h.01s0,.02,0,.02h0Z" style="fill: #fdf9a8; fill-rule: evenodd; stroke: #fdf9a8; stroke-miterlimit: 10; stroke-width: .5px;"/>
  <path d="M8.66,13.63h.05s0,0,0,0c.03-.02.07-.03.11-.03.02,0,.05,0,.07.01.64-.06,1.26-.23,1.84-.5,1.38-.64,2.44-1.78,2.96-3.21.2-.55.32-1.13.35-1.71h0s-.01-.02-.01-.02c-.11-.06-.16-.2-.12-.32.05-.14.2-.21.34-.16.14.05.21.2.16.34-.03.07-.08.12-.14.15h-.01s0,.02,0,.02c-.03.61-.15,1.2-.36,1.77-.54,1.48-1.64,2.67-3.07,3.32-.55.25-1.14.42-1.74.5h-.02s0,.02,0,.02c0,0,0,.01,0,.02,0,.13-.11.24-.24.24s-.24-.11-.24-.24c0-.06.02-.11.05-.15l.02-.06h0Z" style="fill: #fdf9a8; fill-rule: evenodd; stroke: #fdf9a8; stroke-miterlimit: 10; stroke-width: .5px;"/>
  <path d="M11.62,25.19h.01s.01,0,.01,0c.46-.36.87-.78,1.21-1.26.87-1.24,1.2-2.77.94-4.26-.13-.71-.38-1.39-.76-2l-.73-.99h0c-.11-.03-.18-.13-.18-.24,0-.13.11-.24.24-.24s.24.11.24.24c0,.06-.02.12-.06.16h-.01s.64.88.64.88c.42.65.7,1.38.84,2.15.27,1.54-.08,3.13-.97,4.42-.35.5-.77.94-1.25,1.31h-.01s0,.02,0,.02c.01.07,0,.14-.04.2-.08.12-.25.15-.37.06-.12-.08-.15-.25-.07-.37.07-.1.21-.14.33-.09h0Z" style="fill: #fdf9a8; fill-rule: evenodd; stroke: #fdf9a8; stroke-miterlimit: 10; stroke-width: .5px;"/>
  <path d="M15.18,24.63h0s0,.02,0,.02c.07.09.08.22,0,.31-.08.12-.25.15-.37.06-.12-.08-.15-.25-.06-.37.05-.07.13-.11.21-.11h.01s0-.01,0-.01c.92-1.61,1.25-3.52.93-5.35-.22-1.24-.73-2.4-1.48-3.4h0s-.01,0-.01,0c0,0-.01,0-.02,0-.13,0-.24-.11-.24-.24s.11-.24.24-.24.24.11.24.24c0,.04,0,.08-.03.11h0s0,.02,0,.02c.77,1.03,1.29,2.22,1.51,3.48.33,1.87,0,3.82-.94,5.47h0Z" style="fill: #fdf9a8; fill-rule: evenodd; stroke: #fdf9a8; stroke-miterlimit: 10; stroke-width: .5px;"/>
  <path d="M2.26,8.12h0s.01.02.01.02c.11.06.16.2.12.32-.05.14-.2.21-.34.16-.14-.05-.21-.2-.16-.34.03-.07.08-.12.14-.15h.01s0-.02,0-.02c.03-.61.15-1.2.36-1.77.54-1.48,1.64-2.67,3.07-3.32.15-.07.3-.13.46-.19,2.12-.76,4.7-.24,6.28,1.39h0s.01,0,.01,0c.06-.02.12-.02.18,0,.14.05.21.2.16.34-.05.14-.2.21-.34.16-.13-.05-.2-.18-.16-.32v-.02s0,0,0,0c-.27-.28-.57-.53-.89-.74-1.63-1.06-3.84-1.25-5.61-.43-1.38.64-2.44,1.78-2.96,3.21-.2.55-.32,1.13-.35,1.71h0Z" style="fill: #fdf9a8; fill-rule: evenodd; stroke: #fdf9a8; stroke-miterlimit: 10; stroke-width: .5px;"/>
  <path d="M8.84,11.98h.02s0-.01,0-.01c0-.02.02-.03.03-.05.07-.1.21-.14.33-.09h.02s0,0,0,0c.06-.11.2-.17.32-.12.03.01.07.03.09.06h0s.01,0,.01,0c.15-.05.29-.1.43-.17.97-.45,1.71-1.25,2.08-2.25.36-.99.32-2.11-.12-3.06-.04-.09-.09-.18-.14-.27l-.02-.03h-.01s-.06,0-.1-.02c-.14-.05-.21-.2-.16-.34.05-.14.2-.21.34-.16.14.05.21.2.16.34,0,.02-.02.05-.04.07h0s0,.02,0,.02c.05.1.1.19.15.29.46,1.01.51,2.18.13,3.22-.39,1.05-1.17,1.9-2.19,2.37-.15.07-.29.13-.45.18h-.01s0,.02,0,.02c0,.02,0,.04-.01.06-.05.14-.2.21-.34.16,0,0-.01,0-.02,0h-.02s0,0,0,0c0,0,0,.02-.02.02-.08.12-.25.15-.37.07-.03-.02-.06-.05-.08-.08h0s-.01-.01-.01-.01c-.61-.03-1.23,0-1.83.11-.39.07-.77.17-1.14.29h-.01s0,.02,0,.02c0,.05-.02.09-.05.13-.08.12-.25.15-.37.07-.12-.08-.15-.25-.07-.37.08-.12.25-.15.37-.06,0,0,.02.01.03.02h0s.01,0,.01,0c.39-.13.78-.23,1.18-.3.61-.11,1.23-.15,1.85-.12h0Z" style="fill: #fdf9a8; fill-rule: evenodd; stroke: #fdf9a8; stroke-miterlimit: 10; stroke-width: .5px;"/>
  <path d="M13.56,5.13h0s0-.02,0-.02c-.01-.03-.03-.06-.04-.09-.51-1.1-1.35-2.01-2.41-2.6h-.01s-.01,0-.01,0c-.07.05-.16.07-.25.04-.14-.05-.21-.2-.16-.34.05-.14.2-.21.34-.16.1.04.17.14.17.25h0s.01.02.01.02c1.11.61,1.98,1.55,2.51,2.7.02.03.03.07.05.1h0s.01.01.01.01c.02,0,.05,0,.07.02.14.05.21.2.16.34-.05.14-.2.21-.34.16-.14-.05-.21-.2-.16-.34.01-.03.03-.06.05-.09h0Z" style="fill: #fdf9a8; fill-rule: evenodd; stroke: #fdf9a8; stroke-miterlimit: 10; stroke-width: .5px;"/>
  <path d="M11.48,14.19h-.01s0,.02,0,.02c0,.03,0,.07-.02.1-.05.14-.2.21-.34.16-.14-.05-.21-.2-.16-.34.06-.16.26-.22.4-.12h.01s.01,0,.01,0c1.55-.78,2.73-2.11,3.33-3.74.62-1.69.55-3.6-.21-5.23-.11-.24-.24-.48-.37-.7h0s-.01-.01-.01-.01c-.04,0-.08,0-.11-.01-.14-.05-.21-.2-.16-.34.05-.14.2-.21.34-.16.14.05.21.2.16.34,0,.02-.01.03-.02.05h0s0,.02,0,.02c.14.23.27.48.39.72.78,1.68.86,3.65.21,5.39-.62,1.67-1.83,3.04-3.42,3.85h0Z" style="fill: #fdf9a8; fill-rule: evenodd; stroke: #fdf9a8; stroke-miterlimit: 10; stroke-width: .5px;"/>
  <path d="M15.43,11.31c-.8,1.69-2.16,3.03-3.86,3.82-1,.46-2.09.71-3.19.73h-.02s0-.02,0-.02c-.02-.06-.05-.11-.1-.15-.12-.08-.28-.05-.37.06-.01.02-.03.04-.03.07h0s-.01.01-.01.01c-.11.01-.22.03-.33.04-1.1.2-2.08.82-2.72,1.74-.64.92-.89,2.05-.69,3.15.03.16.06.31.11.47h0s-.01.02-.01.02c-.02.01-.03.03-.04.05-.08.12-.05.28.06.37.12.08.28.05.37-.06.08-.12.05-.28-.06-.37-.03-.02-.06-.04-.1-.04h-.01s0-.02,0-.02c-.04-.15-.08-.3-.11-.45-.19-1.05.05-2.12.66-3,.61-.87,1.53-1.46,2.58-1.65.07-.01.14-.02.22-.03.04,0,.08,0,.12,0h.01s0,0,0,0c.02.02.04.04.06.05.11.08.26.06.35-.05h0s.01,0,.01,0c1.15-.01,2.29-.27,3.33-.75,1.74-.8,3.13-2.17,3.95-3.9h0s.01-.01.01-.01c.11,0,.22-.06.26-.17.05-.14-.02-.29-.16-.34-.14-.05-.29.02-.34.16-.03.08-.02.17.03.24h0s0,.02,0,.02h0Z" style="fill: #fdf9a8; fill-rule: evenodd; stroke: #fdf9a8; stroke-miterlimit: 10; stroke-width: .5px;"/>
  <path d="M6.65,4.55h0s-.01,0-.01,0c-.15.05-.29.1-.43.17-.97.45-1.71,1.25-2.08,2.25-.36.99-.32,2.11.12,3.06.04.09.09.18.14.27l.02.03h.01s.07,0,.1.02c.14.05.21.2.16.34-.05.14-.2.21-.34.16-.14-.05-.21-.2-.16-.34,0-.02.02-.05.04-.07h0s0-.02,0-.02c-.05-.1-.1-.19-.15-.29-.46-1.01-.51-2.18-.13-3.22.39-1.05,1.17-1.9,2.19-2.37.15-.07.29-.13.45-.18h.01s0-.02,0-.02c0-.02,0-.04.01-.06.05-.14.2-.21.34-.16.14.05.21.2.16.34-.05.14-.2.21-.34.16-.03-.01-.07-.03-.09-.06h0Z" style="fill: #fdf9a8; fill-rule: evenodd; stroke: #fdf9a8; stroke-miterlimit: 10; stroke-width: .5px;"/>
  <path d="M4.83,2.12h.01s0-.02,0-.02c0-.03,0-.07.02-.1.05-.14.2-.21.34-.16.14.05.21.2.16.34-.05.14-.2.21-.34.16-.02,0-.04-.02-.06-.03h-.01s-.01,0-.01,0c-1.55.78-2.73,2.11-3.33,3.74-.62,1.69-.55,3.6.21,5.23.11.24.24.48.37.7h0s.01.01.01.01c.04,0,.08,0,.11.02.14.05.21.2.16.34-.05.14-.2.21-.34.16-.14-.05-.21-.2-.16-.34,0-.02.01-.03.02-.05h0s0-.02,0-.02c-.14-.23-.27-.47-.39-.72-.78-1.68-.85-3.65-.21-5.39.62-1.67,1.83-3.04,3.42-3.85h0Z" style="fill: #fdf9a8; fill-rule: evenodd; stroke: #fdf9a8; stroke-miterlimit: 10; stroke-width: .5px;"/>
  <path d="M7.38,25.75h.01s0,0,0,0c.09-.11.24-.14.36-.06.12.08.15.25.06.37-.08.12-.25.15-.37.06-.05-.04-.09-.09-.1-.15h0s-.01-.02-.01-.02c-2.41-.39-4.41-2.45-4.84-4.84-.27-1.54.08-3.13.97-4.42.35-.5.77-.94,1.25-1.31h.01s0-.02,0-.02c-.01-.07,0-.14.04-.2.08-.12.25-.15.37-.06.12.08.15.25.06.37-.07.1-.21.14-.33.09h-.01s-.01,0-.01,0c-.46.36-.87.78-1.21,1.26-.87,1.24-1.2,2.77-.94,4.26.41,2.3,2.36,4.3,4.67,4.67h0Z" style="fill: #fdf9a8; fill-rule: evenodd; stroke: #fdf9a8; stroke-miterlimit: 10; stroke-width: .5px;"/>
  <path d="M12.29,19.48h-.01s0,.02,0,.02c.05.15.08.31.11.47.2,1.1-.05,2.23-.69,3.15-.64.92-1.61,1.54-2.72,1.74-.11.02-.22.03-.33.05h-.01s0,.01,0,.01c0,.02-.02.05-.03.07-.08.12-.25.15-.37.06-.12-.08-.15-.25-.06-.37.08-.12.25-.15.37-.06.03.02.05.04.07.07h0s.03,0,.03,0c.1-.01.2-.02.3-.04,1.05-.19,1.97-.78,2.58-1.65.61-.87.85-1.95.66-3-.03-.15-.06-.3-.11-.45h0s-.01-.02-.01-.02c-.04,0-.07-.02-.1-.04-.12-.08-.15-.25-.07-.37.04-.06.1-.1.17-.11.07-.01.14,0,.2.04.12.08.15.25.06.37-.01.02-.03.03-.04.05h0Z" style="fill: #fdf9a8; fill-rule: evenodd; stroke: #fdf9a8; stroke-miterlimit: 10; stroke-width: .5px;"/>
</svg>
