<svg width="50" height="50" viewBox="0 0 22 22" fill="none" xmlns="http://www.w3.org/2000/svg">
  <path d="M17.5722 19.5675C17.5786 19.5757 17.5903 19.577 17.5983 19.5704C18.8904 18.5139 19.9266 17.1696 20.6267 15.6413C21.3295 14.1073 21.6748 12.4292 21.6358 10.7377C21.5967 9.04624 21.1744 7.38682 20.4017 5.8886C19.6319 4.39597 18.5349 3.1034 17.1955 2.11063C17.1872 2.10447 17.1755 2.10634 17.1695 2.11481L16.8097 2.61819C16.8037 2.62666 16.8055 2.63851 16.8138 2.64467C18.0724 3.57778 19.1033 4.79256 19.8268 6.19528C20.5531 7.60363 20.9501 9.16345 20.9868 10.7535C21.0235 12.3435 20.6989 13.9208 20.0383 15.3628C19.3803 16.7991 18.4066 18.0624 17.1925 19.0555C17.1845 19.0621 17.1832 19.074 17.1896 19.0822L17.5722 19.5675Z" fill="#E5E5E5" />
  <path d="M16.313 1.54326C16.3182 1.53425 16.3153 1.52263 16.3064 1.51733C14.9725 0.719854 13.4857 0.222649 11.9463 0.0593706C10.4006 -0.104564 8.83831 0.0719634 7.36558 0.576939C5.89282 1.08191 4.54423 1.90349 3.41158 2.98574C2.28345 4.06368 1.39589 5.37502 0.808784 6.83119C0.804881 6.84087 0.809457 6.85193 0.818986 6.85589L1.38553 7.09064C1.39508 7.0946 1.40593 7.08994 1.40985 7.08026C1.96173 5.71189 2.79588 4.47959 3.85604 3.4666C4.92075 2.44928 6.18843 1.677 7.57279 1.20232C8.95718 0.727645 10.4258 0.561709 11.8786 0.715806C13.3253 0.869249 14.7226 1.33642 15.9763 2.08572C15.9851 2.09102 15.9965 2.08803 16.0018 2.07903L16.313 1.54326Z" fill="#E5E5E5" />
  <path d="M0.380453 8.18562C0.370508 8.18292 0.360306 8.18896 0.357683 8.19905C0.113567 9.14027 -0.00661751 10.1102 0.000280913 11.0835C0.000355927 11.094 0.00877764 11.1023 0.019069 11.1023L0.630942 11.0964C0.641231 11.0964 0.649488 11.0878 0.649416 11.0774C0.643034 10.1632 0.755913 9.25226 0.985096 8.36821C0.987719 8.35809 0.981796 8.34774 0.971848 8.34504L0.380453 8.18562Z" fill="#E5E5E5" />
  <path d="M0.114538 12.4649C0.104345 12.4663 0.0971925 12.4758 0.0985774 12.4862C0.295314 13.9572 0.782952 15.3726 1.53219 16.6468C2.28458 17.9264 3.28512 19.0371 4.47294 19.9113C5.66076 20.7855 7.01111 21.4049 8.44191 21.732C9.86666 22.0577 11.3416 22.0867 12.7778 21.8174C12.7879 21.8155 12.7946 21.8056 12.7927 21.7954L12.6809 21.1837C12.679 21.1735 12.6693 21.1667 12.6591 21.1686C11.3095 21.4215 9.92344 21.3942 8.58456 21.0881C7.23961 20.7806 5.97028 20.1984 4.85373 19.3766C3.73717 18.5549 2.79666 17.5109 2.0894 16.308C1.38533 15.1105 0.927005 13.7805 0.741971 12.3981C0.740583 12.3878 0.731204 12.3805 0.721002 12.3819L0.114538 12.4649Z" fill="#E5E5E5" />
  <path d="M13.8642 21.5345C13.8671 21.5445 13.8775 21.5503 13.8873 21.5473C14.8318 21.263 15.7337 20.8489 16.568 20.3166C16.5767 20.311 16.5793 20.2993 16.5738 20.2904L16.2478 19.7641C16.2423 19.7553 16.2308 19.7526 16.2221 19.7582C15.4384 20.2581 14.5913 20.647 13.7043 20.9142C13.6944 20.9171 13.6888 20.9277 13.6917 20.9377L13.8642 21.5345Z" fill="#E5E5E5" />
  <path d="M18.5899 16.4749C15.6139 20.8363 9.72277 21.9199 5.43161 18.8953C1.14042 15.8707 0.0741843 9.88314 3.05011 5.52175C6.02604 1.16035 11.9172 0.0766844 16.2084 3.10131C20.4996 6.12592 21.5658 12.1135 18.5899 16.4749ZM4.45741 6.51368C2.02049 10.0851 2.89359 14.9882 6.40755 17.465C9.9215 19.9418 14.7457 19.0544 17.1826 15.4829C19.6195 11.9115 18.7464 7.00842 15.2324 4.53163C11.7185 2.05482 6.89433 2.9422 4.45741 6.51368Z" fill="#E5E5E5" />
</svg>
