<?xml version="1.0" encoding="UTF-8"?>
<svg xmlns="http://www.w3.org/2000/svg" width="150" height="150" viewBox="0 0 150 150">
  <!-- Black circle background -->
  <circle cx="75" cy="75" r="75" fill="#000000"/>
  
  <!-- Orange logo: 70% of canvas height, centered -->
  <!-- Original: 21.1582 x 24.5264 → Scale: 4.2809 → Scaled: 90.58 x 105 -->
  <!-- Offset: (150-90.58)/2 = 29.71, (150-105)/2 = 22.5 -->
  <g transform="translate(29.71, 22.5) scale(4.2809)">
    <path d="M21.1582,6.1641L10.9077.1514l-.4019-.1514L.0005,6.165l-.0005,12.2197,10.4644,6.1416.231-.0015,10.5132-6.1426-.0503-12.2183ZM19.1802,12.2734l-3.4512,2.1265-3.6367-2.1265,3.6401-2.1582,3.4478,2.1582ZM14.9927,15.7437v3.6025l-3.6646-2.1187-.0117-3.6509,3.6763,2.167ZM9.8115,13.6294v3.6323l-3.645,2.1167v-3.6177l3.645-2.1313ZM6.1665,8.8047v-3.6323l3.645,2.1313v3.6177l-3.645-2.1167ZM14.1499,20.667l-3.5723,2.1304-3.5991-2.0859,3.6021-2.1431,3.5693,2.0986ZM6.979,3.895l3.606-2.1689,3.5654,2.124-3.5728,2.0991-3.5986-2.0542ZM11.3477,10.9214v-3.666l3.645-2.0874v3.6367l-3.645,2.1167ZM9.0654,12.2886l-3.6592,2.1182-3.4312-2.1484,3.4214-2.1421,3.6689,2.1724ZM1.4863,10.7681v-3.7148l3.1772-1.8481v3.5557l-3.1772,2.0073ZM4.6626,19.312l-3.1763-1.8335v-3.7012l3.1699,1.9697.0063,3.5649ZM19.6724,13.7812v3.6973l-3.1768,1.834v-3.5239l3.1768-2.0073ZM19.6724,7.1021v3.666l-3.1768-2.0073v-3.5503l3.1768,1.8916Z" fill="#e59200"/>
  </g>
</svg>
